<svg width="405.72" height="156.241" viewBox="0 0 405.72 156.241" xmlns="http://www.w3.org/2000/svg"><g id="svgGroup" stroke-linecap="round" fill-rule="nonzero" font-size="9pt" stroke="#ffffff" stroke-width="0.25mm" fill="#8250df" style="stroke:#ffffff;stroke-width:0.25mm;fill:#8250df"><path d="M 3.991 111.422 Q 3.152 111.267 2.515 110.928 A 3.502 3.502 0 0 1 1.176 109.705 Q 0 107.857 0 105.673 A 124.54 124.54 0 0 1 0.402 95.98 Q 0.79 91.027 1.551 85.537 A 218.547 218.547 0 0 1 2.1 81.817 Q 4.2 68.377 7.224 55.105 A 260.131 260.131 0 0 1 10.814 41.625 A 217.669 217.669 0 0 1 13.188 34.105 Q 16.301 24.846 18.731 18.773 A 149.76 149.76 0 0 1 18.984 18.145 A 56.819 56.819 0 0 1 21.782 12.397 Q 23.337 9.637 25.05 7.472 A 27.026 27.026 0 0 1 27.468 4.789 Q 32.256 0.169 38.64 0.169 Q 43.344 0.169 47.04 3.277 A 9.797 9.797 0 0 1 49.466 6.461 Q 50.894 9.324 51.347 13.784 A 36.87 36.87 0 0 1 51.408 14.449 Q 52.416 24.193 53.76 34.105 Q 55.104 44.017 56.784 52.165 Q 58.3 59.516 59.952 63.79 A 30.671 30.671 0 0 0 60.312 64.681 A 9.928 9.928 0 0 0 61.095 66.28 Q 61.597 67.094 62.202 67.615 A 3.683 3.683 0 0 0 64.68 68.545 A 5.064 5.064 0 0 0 67.941 67.321 Q 68.708 66.698 69.408 65.757 A 13.385 13.385 0 0 0 70.224 64.513 A 44.348 44.348 0 0 0 71.622 61.94 Q 73.146 58.921 74.818 54.71 A 137.932 137.932 0 0 0 74.928 54.433 A 295.214 295.214 0 0 0 78.661 44.431 A 339.844 339.844 0 0 0 79.884 40.909 Q 82.32 33.769 84.168 27.889 Q 86.352 21.505 89.124 15.037 Q 91.896 8.569 96.264 4.285 Q 100.632 0.001 107.184 0.001 A 13.914 13.914 0 0 1 110.472 0.363 A 8.436 8.436 0 0 1 115.836 4.117 Q 118.44 8.233 118.44 17.137 Q 118.44 24.025 117.936 31.585 A 559.501 559.501 0 0 1 117.532 40.284 A 608.992 608.992 0 0 1 117.516 40.573 Q 117.264 45.193 117.264 50.065 A 169.456 169.456 0 0 0 117.621 60.857 A 199.599 199.599 0 0 0 118.02 66.025 Q 118.776 74.425 121.044 81.817 A 35.894 35.894 0 0 0 124.203 89.198 A 29.459 29.459 0 0 0 127.848 94.249 Q 129.192 95.425 130.284 96.937 Q 131.376 98.449 131.376 100.297 Q 131.376 104.07 127.782 107.233 A 17.564 17.564 0 0 1 126.924 107.941 Q 122.472 111.385 116.76 111.385 Q 111.552 111.385 109.032 108.025 A 19.355 19.355 0 0 1 107.151 104.906 Q 106.368 103.305 105.723 101.38 A 39.492 39.492 0 0 1 105 98.953 A 96.685 96.685 0 0 1 103.167 88.774 A 114.119 114.119 0 0 1 102.648 83.833 Q 101.976 75.769 101.976 68.209 Q 101.976 56.113 102.9 45.949 Q 103.807 35.969 103.824 31.091 A 52.915 52.915 0 0 0 103.824 30.913 Q 103.824 28.74 103.495 27.5 A 4.68 4.68 0 0 0 103.32 26.965 A 1.81 1.81 0 0 0 102.221 25.925 Q 101.864 25.789 101.407 25.737 A 5.38 5.38 0 0 0 100.8 25.705 A 4.628 4.628 0 0 0 97.316 27.255 A 6.762 6.762 0 0 0 96.852 27.805 A 12.051 12.051 0 0 0 95.674 29.731 Q 95.174 30.734 94.754 31.952 A 26.137 26.137 0 0 0 94.248 33.601 Q 92.064 40.657 89.376 48.721 Q 86.688 56.785 83.748 64.513 A 120.231 120.231 0 0 1 80.506 72.249 A 91.97 91.97 0 0 1 77.448 78.289 A 38.059 38.059 0 0 1 75.039 82.159 Q 73.721 84 72.341 85.351 A 14.749 14.749 0 0 1 69.132 87.781 A 20.208 20.208 0 0 1 64.167 89.734 A 17.106 17.106 0 0 1 60.144 90.217 A 17.785 17.785 0 0 1 55.884 89.737 A 11.56 11.56 0 0 1 49.476 85.765 Q 45.864 81.313 44.184 75.937 Q 42.717 71.083 41.401 64.22 A 225.498 225.498 0 0 1 40.152 57.037 Q 38.311 45.406 37.471 30.859 A 360.074 360.074 0 0 1 37.464 30.745 Q 37.24 26.608 35.529 25.224 A 3.229 3.229 0 0 0 33.432 24.529 A 5.17 5.17 0 0 0 29.671 26.186 Q 28.169 27.694 27.048 30.577 A 119.781 119.781 0 0 0 25.316 36.271 Q 24.497 39.21 23.707 42.522 A 211.101 211.101 0 0 0 23.184 44.773 A 170.559 170.559 0 0 0 20.529 59.546 A 187.4 187.4 0 0 0 20.244 61.741 Q 19.152 70.561 19.152 79.129 A 153.141 153.141 0 0 0 19.235 84.287 Q 19.33 87.093 19.533 89.558 A 81.865 81.865 0 0 0 19.74 91.729 A 100.913 100.913 0 0 1 20.238 98.031 A 81.806 81.806 0 0 1 20.328 101.809 Q 20.328 104.908 18.112 107.007 A 8.611 8.611 0 0 1 17.724 107.353 Q 15.12 109.537 11.592 110.545 A 32.241 32.241 0 0 1 9.187 111.139 Q 7.158 111.553 5.544 111.553 A 8.571 8.571 0 0 1 3.991 111.422 Z M 284.694 155.639 Q 280.448 154.945 277.004 153.451 A 24.277 24.277 0 0 1 272.664 151.033 A 19.28 19.28 0 0 1 268.306 146.899 A 15.061 15.061 0 0 1 265.272 137.593 Q 265.272 131.545 269.052 126.841 A 12.04 12.04 0 0 1 277.811 122.185 A 15.507 15.507 0 0 1 279.048 122.137 Q 281.294 122.137 282.11 122.954 A 1.624 1.624 0 0 1 282.576 124.153 A 7.965 7.965 0 0 1 282.496 125.246 Q 282.418 125.803 282.267 126.419 A 14.745 14.745 0 0 1 282.156 126.841 Q 281.736 128.353 281.736 129.865 Q 281.736 134.486 286.925 136.756 A 15.427 15.427 0 0 0 287.112 136.837 Q 291.968 138.885 298.607 139.083 A 48.334 48.334 0 0 0 300.048 139.105 A 47.053 47.053 0 0 0 309.32 138.159 A 51.762 51.762 0 0 0 309.624 138.097 Q 314.496 137.089 317.772 134.989 A 8.023 8.023 0 0 0 319.633 133.381 A 6.092 6.092 0 0 0 321.048 129.361 A 5.983 5.983 0 0 0 320.335 126.412 Q 319.388 124.703 317.184 123.649 A 26.419 26.419 0 0 0 313.712 122.3 Q 310.931 121.425 307.44 120.877 Q 301.56 119.953 295.428 119.197 Q 289.296 118.441 284.928 116.761 A 32.906 32.906 0 0 1 281.742 115.524 Q 280.143 114.798 278.882 113.973 A 13.604 13.604 0 0 1 276.696 112.225 A 9.072 9.072 0 0 1 274.056 106.426 A 12.245 12.245 0 0 1 274.008 105.337 Q 274.008 98.135 281.975 93.588 A 29.393 29.393 0 0 1 283.584 92.737 A 19.652 19.652 0 0 1 277.531 88.01 A 18.658 18.658 0 0 1 275.268 84.673 A 23.861 23.861 0 0 1 272.539 74.658 A 28.438 28.438 0 0 1 272.496 73.081 Q 272.496 64.849 276.78 57.625 A 30.383 30.383 0 0 1 284.994 48.669 A 39.154 39.154 0 0 1 289.548 45.781 A 35.541 35.541 0 0 1 298.772 42.389 Q 302.855 41.468 307.58 41.237 A 66.151 66.151 0 0 1 310.8 41.161 Q 316.512 41.161 322.392 42.253 A 27.809 27.809 0 0 1 327.324 43.622 A 20.478 20.478 0 0 1 332.22 46.285 Q 336.168 49.225 336.168 54.769 A 11.418 11.418 0 0 1 335.965 56.855 Q 335.781 57.84 335.433 58.908 A 19.704 19.704 0 0 1 335.328 59.221 Q 334.488 61.657 332.136 61.657 A 6.536 6.536 0 0 1 331.44 61.616 Q 330.603 61.525 329.448 61.237 L 326.424 60.481 Q 326.76 62.161 327.012 64.177 Q 327.264 66.193 327.264 68.377 A 27.009 27.009 0 0 1 320.752 86.019 A 33.882 33.882 0 0 1 320.544 86.269 A 25.449 25.449 0 0 1 309.55 93.778 Q 305.76 95.161 301.184 95.725 A 47.138 47.138 0 0 1 300.888 95.761 Q 296.184 96.097 293.916 96.853 Q 292.637 97.279 292.079 98.053 A 2.337 2.337 0 0 0 291.648 99.457 Q 291.648 101.137 293.664 101.893 A 14.692 14.692 0 0 0 295.341 102.401 Q 296.877 102.775 298.872 102.985 A 132.534 132.534 0 0 1 307.963 104.03 Q 312.214 104.677 315.957 105.578 A 79.06 79.06 0 0 1 317.016 105.841 A 34.116 34.116 0 0 1 322.659 107.787 Q 326.651 109.596 329.364 112.309 A 14.433 14.433 0 0 1 333.024 118.72 Q 333.668 120.995 333.788 123.714 A 28.836 28.836 0 0 1 333.816 124.993 A 27.256 27.256 0 0 1 332.157 134.624 A 24.802 24.802 0 0 1 328.188 141.541 A 34.943 34.943 0 0 1 317.883 150.105 A 44.018 44.018 0 0 1 313.152 152.377 A 52.214 52.214 0 0 1 296.249 156.137 A 61.38 61.38 0 0 1 292.656 156.241 A 49.444 49.444 0 0 1 284.694 155.639 Z M 299.04 81.145 Q 306.768 81.145 311.136 76.945 A 14.037 14.037 0 0 0 315.418 67.865 A 19.155 19.155 0 0 0 315.504 66.025 A 21.914 21.914 0 0 0 315.209 62.486 A 24.13 24.13 0 0 0 315.168 62.245 Q 314.832 60.313 314.496 58.969 Q 311.808 58.129 309.288 57.877 A 49.843 49.843 0 0 0 305.155 57.631 A 44.648 44.648 0 0 0 304.416 57.625 Q 295.512 57.625 290.472 60.985 A 11.899 11.899 0 0 0 287.304 63.994 Q 285.432 66.641 285.432 70.225 A 11.719 11.719 0 0 0 285.93 73.732 A 9.059 9.059 0 0 0 289.128 78.289 A 12.847 12.847 0 0 0 293.61 80.475 Q 295.424 80.977 297.572 81.103 A 25.146 25.146 0 0 0 299.04 81.145 Z M 149.1 104.749 Q 142.316 97.805 141.978 85.627 A 46.541 46.541 0 0 1 141.96 84.337 A 47.237 47.237 0 0 1 144.203 69.622 A 42.937 42.937 0 0 1 147.168 62.665 Q 152.376 52.921 161.196 47.125 Q 170.016 41.329 180.6 41.329 A 33.277 33.277 0 0 1 187.324 41.969 Q 192.854 43.11 196.728 46.285 A 15.951 15.951 0 0 1 202.723 57.954 A 21.22 21.22 0 0 1 202.776 59.473 Q 202.776 66.025 198.744 71.569 A 27.729 27.729 0 0 1 190.026 79.309 A 33.292 33.292 0 0 1 187.992 80.389 A 32.683 32.683 0 0 1 176.074 83.549 A 39.367 39.367 0 0 1 173.04 83.665 Q 162.96 83.665 156.576 79.129 A 19.346 19.346 0 0 0 157.565 85.01 A 15.667 15.667 0 0 0 161.868 91.561 A 17.595 17.595 0 0 0 171.208 95.971 A 24.276 24.276 0 0 0 175.056 96.265 Q 179.928 96.265 185.052 94.501 Q 190.176 92.737 193.872 89.713 Q 195.346 88.45 196.687 87.978 A 4.669 4.669 0 0 1 198.24 87.697 A 4.229 4.229 0 0 1 199.62 87.913 A 3.6 3.6 0 0 1 201.012 88.789 A 3.688 3.688 0 0 1 202.095 91.251 A 4.927 4.927 0 0 1 202.104 91.561 A 6.05 6.05 0 0 1 201.571 93.894 Q 200.272 96.973 195.813 101.217 A 57.275 57.275 0 0 1 195.72 101.305 Q 184.464 112.057 169.008 112.057 Q 157.296 112.057 150.319 105.907 A 22.557 22.557 0 0 1 149.1 104.749 Z M 171.528 72.577 A 24.02 24.02 0 0 0 175.945 72.192 Q 179.151 71.592 181.608 70.057 A 10.81 10.81 0 0 0 183.647 68.442 A 6.636 6.636 0 0 0 185.64 63.673 A 6.018 6.018 0 0 0 185.162 61.233 Q 184.506 59.736 182.952 58.717 Q 180.895 57.367 177.658 57.05 A 21.556 21.556 0 0 0 175.56 56.953 A 19.855 19.855 0 0 0 169.427 57.87 A 17.243 17.243 0 0 0 164.724 60.229 A 17.59 17.59 0 0 0 158.707 67.782 A 22.157 22.157 0 0 0 158.088 69.385 Q 160.44 70.897 164.136 71.737 Q 167.832 72.577 171.528 72.577 Z M 352.044 104.749 Q 345.26 97.805 344.922 85.627 A 46.541 46.541 0 0 1 344.904 84.337 A 47.237 47.237 0 0 1 347.147 69.622 A 42.937 42.937 0 0 1 350.112 62.665 Q 355.32 52.921 364.14 47.125 Q 372.96 41.329 383.544 41.329 A 33.277 33.277 0 0 1 390.268 41.969 Q 395.798 43.11 399.672 46.285 A 15.951 15.951 0 0 1 405.667 57.954 A 21.22 21.22 0 0 1 405.72 59.473 Q 405.72 66.025 401.688 71.569 A 27.729 27.729 0 0 1 392.97 79.309 A 33.292 33.292 0 0 1 390.936 80.389 A 32.683 32.683 0 0 1 379.018 83.549 A 39.367 39.367 0 0 1 375.984 83.665 Q 365.904 83.665 359.52 79.129 A 19.346 19.346 0 0 0 360.509 85.01 A 15.667 15.667 0 0 0 364.812 91.561 A 17.595 17.595 0 0 0 374.152 95.971 A 24.276 24.276 0 0 0 378 96.265 Q 382.872 96.265 387.996 94.501 Q 393.12 92.737 396.816 89.713 Q 398.29 88.45 399.631 87.978 A 4.669 4.669 0 0 1 401.184 87.697 A 4.229 4.229 0 0 1 402.564 87.913 A 3.6 3.6 0 0 1 403.956 88.789 A 3.688 3.688 0 0 1 405.039 91.251 A 4.927 4.927 0 0 1 405.048 91.561 A 6.05 6.05 0 0 1 404.515 93.894 Q 403.216 96.973 398.757 101.217 A 57.275 57.275 0 0 1 398.664 101.305 Q 387.408 112.057 371.952 112.057 Q 360.24 112.057 353.263 105.907 A 22.557 22.557 0 0 1 352.044 104.749 Z M 374.472 72.577 A 24.02 24.02 0 0 0 378.889 72.192 Q 382.095 71.592 384.552 70.057 A 10.81 10.81 0 0 0 386.591 68.442 A 6.636 6.636 0 0 0 388.584 63.673 A 6.018 6.018 0 0 0 388.106 61.233 Q 387.45 59.736 385.896 58.717 Q 383.839 57.367 380.602 57.05 A 21.556 21.556 0 0 0 378.504 56.953 A 19.855 19.855 0 0 0 372.371 57.87 A 17.243 17.243 0 0 0 367.668 60.229 A 17.59 17.59 0 0 0 361.651 67.782 A 22.157 22.157 0 0 0 361.032 69.385 Q 363.384 70.897 367.08 71.737 Q 370.776 72.577 374.472 72.577 Z M 224.109 111.616 Q 222.568 111.41 221.508 110.797 Q 219.912 109.873 220.416 107.689 Q 222.264 100.465 223.524 92.989 A 90.042 90.042 0 0 0 224.684 82.546 A 78.139 78.139 0 0 0 224.784 78.625 Q 224.784 71.592 224.103 67.547 A 21.608 21.608 0 0 0 223.692 65.605 Q 222.6 61.489 220.752 59.893 A 11.679 11.679 0 0 0 217.965 58.123 A 14.749 14.749 0 0 0 216.216 57.457 Q 215.04 56.953 214.116 56.113 A 2.745 2.745 0 0 1 213.274 54.599 A 4.096 4.096 0 0 1 213.192 53.761 A 7.168 7.168 0 0 1 213.54 51.626 Q 213.823 50.716 214.338 49.743 A 15.839 15.839 0 0 1 215.04 48.553 A 15.17 15.17 0 0 1 218.117 45.13 A 19.504 19.504 0 0 1 220.248 43.597 A 13.865 13.865 0 0 1 226.504 41.559 A 17.163 17.163 0 0 1 227.976 41.497 Q 233.688 41.497 235.956 45.445 Q 237.786 48.629 238.139 53.399 A 32.168 32.168 0 0 1 238.224 55.777 Q 241.182 49.204 245.505 45.283 A 23.536 23.536 0 0 1 245.7 45.109 A 15.547 15.547 0 0 1 254.383 41.305 A 20.85 20.85 0 0 1 256.872 41.161 A 16.861 16.861 0 0 1 260.247 41.481 Q 262.613 41.964 264.432 43.177 A 6.504 6.504 0 0 1 267.19 47.257 A 10.716 10.716 0 0 1 267.456 49.729 A 13.689 13.689 0 0 1 265.124 57.342 A 17.16 17.16 0 0 1 264.516 58.213 A 15.583 15.583 0 0 1 262.995 59.986 Q 260.912 62.046 258.789 62.155 A 4.63 4.63 0 0 1 258.552 62.161 A 3.702 3.702 0 0 1 258.115 62.133 Q 257.903 62.108 257.667 62.059 A 7.107 7.107 0 0 1 257.376 61.993 A 1.906 1.906 0 0 1 256.569 61.557 A 2.706 2.706 0 0 1 256.2 61.153 A 7.801 7.801 0 0 0 254.34 59.463 A 6.419 6.419 0 0 0 250.824 58.465 A 7.596 7.596 0 0 0 246.046 60.214 Q 244.017 61.806 242.256 64.849 Q 238.56 71.233 238.224 82.489 Q 238.392 86.689 238.476 91.057 A 798.002 798.002 0 0 1 238.513 93.094 Q 238.558 95.787 238.56 97.287 A 103.228 103.228 0 0 1 238.56 97.441 A 18.425 18.425 0 0 1 237.992 102.131 A 13.849 13.849 0 0 1 235.116 107.689 A 11.298 11.298 0 0 1 227.224 111.658 A 15.904 15.904 0 0 1 225.792 111.721 A 12.723 12.723 0 0 1 224.109 111.616 Z" vector-effect="non-scaling-stroke"/></g></svg>