<svg width="101.4" height="65.701" viewBox="0 0 101.4 65.701" xmlns="http://www.w3.org/2000/svg"><g id="svgGroup" stroke-linecap="round" fill-rule="evenodd" font-size="9pt" stroke="#ffffff" stroke-width="0mm" fill="#8250df" style="stroke:#ffffff;stroke-width:0mm;fill:#8250df"><path d="M 56.637 65.442 A 7.796 7.796 0 0 0 58.6 65.701 A 16.938 16.938 0 0 0 59.28 65.687 Q 60.73 65.629 61.969 65.318 A 9.077 9.077 0 0 0 65.1 63.901 A 9.43 9.43 0 0 0 65.74 63.399 Q 66.391 62.838 66.815 62.242 A 3.98 3.98 0 0 0 67.6 59.901 A 3.735 3.735 0 0 0 67.012 57.91 A 5.588 5.588 0 0 0 66.2 56.901 Q 64.2 55.001 63.55 52.351 Q 63.185 50.86 63.025 49.101 A 32.08 32.08 0 0 1 62.9 46.201 Q 62.9 42.201 63.35 37.301 Q 63.8 32.401 64.4 27.401 A 249.845 249.845 0 0 0 64.694 25.076 Q 65.542 18.087 65.8 12.501 A 37.671 37.671 0 0 1 68.907 11.733 A 30.823 30.823 0 0 1 75 11.101 A 21.223 21.223 0 0 1 79.115 11.48 A 15.159 15.159 0 0 1 84.15 13.401 A 7.402 7.402 0 0 1 87.506 17.742 A 10.439 10.439 0 0 1 87.9 20.701 A 12.344 12.344 0 0 1 87.884 21.339 A 9.422 9.422 0 0 1 84.6 28.201 A 11.252 11.252 0 0 1 79.765 30.676 A 15.808 15.808 0 0 1 76 31.101 Q 74.031 31.101 72.73 31.249 A 11.059 11.059 0 0 0 71.75 31.401 Q 71.048 31.546 70.498 31.809 A 3.573 3.573 0 0 0 69.5 32.501 A 3.622 3.622 0 0 0 68.611 33.928 A 4.3 4.3 0 0 0 68.4 35.301 A 6.829 6.829 0 0 0 68.424 35.867 A 7.729 7.729 0 0 0 68.7 37.351 A 29.315 29.315 0 0 0 68.777 37.615 A 32.533 32.533 0 0 0 69.4 39.501 Q 71 43.301 73.35 47.801 Q 75.7 52.301 78.7 56.351 A 35.813 35.813 0 0 0 80.828 58.964 A 28.94 28.94 0 0 0 85.25 63.001 A 15.373 15.373 0 0 0 86.82 64.014 A 11.876 11.876 0 0 0 92.7 65.601 Q 94.556 65.601 95.97 65.189 A 6.715 6.715 0 0 0 97.9 64.301 A 8.73 8.73 0 0 0 98.413 63.922 A 7.068 7.068 0 0 0 100.6 61.051 A 11.649 11.649 0 0 0 100.931 60.139 A 9.712 9.712 0 0 0 101.4 57.201 A 9.155 9.155 0 0 0 101.38 56.566 Q 101.304 55.483 100.95 55.051 Q 100.5 54.501 99.9 54.601 A 11.98 11.98 0 0 1 99.554 54.653 Q 98.474 54.801 97.1 54.801 A 12.122 12.122 0 0 1 93.407 54.217 Q 91.208 53.517 89.037 51.98 A 25.226 25.226 0 0 1 85.5 48.901 Q 83.6 46.901 81.75 44.401 Q 79.9 41.901 78.3 39.401 A 21.864 21.864 0 0 0 82.122 38.24 A 26.569 26.569 0 0 0 86.95 35.651 Q 91.2 32.801 93.95 28.301 A 18.162 18.162 0 0 0 95.83 24.114 A 20.843 20.843 0 0 0 96.7 18.001 A 20.654 20.654 0 0 0 96.475 14.897 A 15.647 15.647 0 0 0 94 8.401 Q 91.3 4.401 86.5 2.201 Q 81.7 0.001 75.5 0.001 A 35.796 35.796 0 0 0 72.283 0.149 A 43.227 43.227 0 0 0 66.65 1.051 Q 62 2.101 57.9 4.401 A 21.454 21.454 0 0 0 56.729 5.051 Q 54.492 6.388 53.25 7.951 A 6.286 6.286 0 0 0 52.793 8.607 Q 52.168 9.641 51.9 10.962 A 10.776 10.776 0 0 0 51.7 13.101 Q 51.7 14.501 52.05 15.551 Q 52.283 16.248 52.802 16.482 A 1.441 1.441 0 0 0 53.4 16.601 Q 53.744 16.601 54.206 16.483 A 6.52 6.52 0 0 0 54.65 16.351 A 11.852 11.852 0 0 0 55.278 16.122 A 9.263 9.263 0 0 0 56 15.801 Q 56.3 17.901 56.4 20.201 A 112.381 112.381 0 0 1 56.444 21.338 A 98.012 98.012 0 0 1 56.5 24.601 Q 56.5 30.501 55.85 36.501 Q 55.2 42.501 54.4 47.501 Q 54 50.501 53.65 53.651 Q 53.3 56.801 53.3 58.801 Q 53.3 60.908 53.67 62.276 A 5.365 5.365 0 0 0 54.1 63.401 A 6.053 6.053 0 0 0 54.206 63.59 Q 54.981 64.927 56.15 65.301 A 9.079 9.079 0 0 0 56.637 65.442 Z M 4.937 65.442 A 7.796 7.796 0 0 0 6.9 65.701 A 16.938 16.938 0 0 0 7.58 65.687 Q 9.03 65.629 10.269 65.318 A 9.077 9.077 0 0 0 13.4 63.901 A 9.43 9.43 0 0 0 14.04 63.399 Q 14.691 62.838 15.115 62.242 A 3.98 3.98 0 0 0 15.9 59.901 A 3.735 3.735 0 0 0 15.312 57.91 A 5.588 5.588 0 0 0 14.5 56.901 Q 12.5 55.001 11.85 52.351 Q 11.485 50.86 11.325 49.101 A 32.08 32.08 0 0 1 11.2 46.201 Q 11.2 42.201 11.65 37.351 Q 12.1 32.501 12.7 27.501 Q 13.8 19.101 14.1 12.501 Q 16.4 11.901 18.7 11.551 A 32.626 32.626 0 0 1 18.844 11.529 A 29.811 29.811 0 0 1 23.2 11.201 A 24.482 24.482 0 0 1 23.505 11.203 Q 29.297 11.275 33 14.101 A 9.243 9.243 0 0 1 36.22 18.452 A 10.98 10.98 0 0 1 36.8 22.101 A 13.456 13.456 0 0 1 36.787 22.706 A 10.157 10.157 0 0 1 33.35 30.101 A 11.659 11.659 0 0 1 28.384 32.728 A 15.934 15.934 0 0 1 24.4 33.201 A 19.426 19.426 0 0 1 24.312 33.201 Q 23.65 33.198 23.056 33.149 A 11.838 11.838 0 0 1 21.9 33.001 A 236.833 236.833 0 0 0 21.412 32.913 Q 20.905 32.822 20.531 32.757 A 60.538 60.538 0 0 0 20.2 32.701 Q 19.6 32.501 19 32.401 A 12.544 12.544 0 0 0 18.746 32.361 Q 18.483 32.323 18.293 32.309 A 2.668 2.668 0 0 0 18.1 32.301 A 2.157 2.157 0 0 0 17.952 32.306 Q 16.878 32.38 16.55 33.551 A 9.031 9.031 0 0 0 16.311 34.692 A 11.221 11.221 0 0 0 16.2 36.301 A 12.587 12.587 0 0 0 16.268 37.642 Q 16.367 38.567 16.612 39.33 A 5.422 5.422 0 0 0 17.5 41.051 A 3.156 3.156 0 0 0 17.945 41.509 Q 19.356 42.701 22.5 42.701 Q 26.4 42.701 30.45 40.951 A 24.253 24.253 0 0 0 32.193 40.113 A 26.495 26.495 0 0 0 37.95 35.951 Q 41.4 32.701 43.5 28.301 Q 45.6 23.901 45.6 18.701 A 23.276 23.276 0 0 0 45.54 17.009 A 16.773 16.773 0 0 0 39.75 5.101 A 18.821 18.821 0 0 0 39.043 4.514 Q 35.557 1.762 30.805 0.688 A 29.944 29.944 0 0 0 24.2 0.001 Q 19.3 0.001 14.55 1.251 Q 9.8 2.501 6.3 4.401 A 27.186 27.186 0 0 0 6 4.562 Q 2.643 6.388 1.35 8.351 A 7.934 7.934 0 0 0 0.232 11.079 A 11.063 11.063 0 0 0 0 13.401 A 10.842 10.842 0 0 0 0.02 14.079 Q 0.185 16.701 1.7 16.701 A 3.1 3.1 0 0 0 2.274 16.646 A 3.886 3.886 0 0 0 2.95 16.451 A 8.743 8.743 0 0 0 3.529 16.203 A 10.895 10.895 0 0 0 4.3 15.801 Q 4.6 18.001 4.7 20.301 Q 4.8 22.601 4.8 24.601 Q 4.8 29.701 4.35 34.701 A 165.172 165.172 0 0 1 4.094 37.322 A 142.821 142.821 0 0 1 3.2 44.201 Q 2.5 48.601 2.05 52.451 Q 1.6 56.301 1.6 58.801 Q 1.6 60.908 1.97 62.276 A 5.365 5.365 0 0 0 2.4 63.401 A 6.053 6.053 0 0 0 2.506 63.59 Q 3.281 64.927 4.45 65.301 A 9.079 9.079 0 0 0 4.937 65.442 Z" vector-effect="non-scaling-stroke"/></g></svg>